<svg width="330" height="24" viewBox="0 0 330 24" fill="none" xmlns="http://www.w3.org/2000/svg">
<path d="M5.08792 22.528C5.02392 22.5707 4.93859 22.5707 4.83192 22.528C4.72525 22.5067 4.60792 22.4427 4.47992 22.336C4.35192 22.2507 4.21325 22.144 4.06392 22.016C3.97859 21.9307 3.92525 21.8347 3.90392 21.728C3.88259 21.6 3.90392 21.3867 3.96792 21.088C4.03192 20.7893 4.12792 20.3093 4.25592 19.648C4.34125 19.2213 4.43725 18.7947 4.54392 18.368C4.65059 17.9413 4.74659 17.5893 4.83192 17.312C4.91725 17.0133 4.95992 16.864 4.95992 16.864C5.06659 16.8213 5.21592 16.5013 5.40792 15.904C5.62125 15.3067 5.85592 14.5813 6.11192 13.728C6.19725 13.4293 6.34659 12.928 6.55992 12.224C6.77325 11.52 6.98658 10.8373 7.19992 10.176C7.39192 9.55734 7.55192 9.00267 7.67992 8.51201C7.80792 8.00001 7.87192 7.74401 7.87192 7.74401C7.87192 7.74401 7.71192 7.84001 7.39192 8.03201C7.09325 8.20267 6.70925 8.43734 6.23992 8.73601C5.77059 9.01334 5.31192 9.32267 4.86392 9.66401C4.50125 9.87734 4.06392 10.176 3.55192 10.56C3.06125 10.944 2.62392 11.2533 2.23992 11.488C1.66392 11.936 1.31192 12.192 1.18392 12.256C1.05592 12.2987 0.895918 12.2667 0.703918 12.16C0.426585 11.9253 0.234585 11.68 0.127918 11.424C0.0425847 11.168 0.0639181 10.9333 0.191918 10.72C0.234585 10.6987 0.362585 10.6133 0.575918 10.464C0.810585 10.3147 1.06659 10.144 1.34392 9.95201C1.62125 9.76001 1.87725 9.57867 2.11192 9.40801C2.36792 9.23734 2.54925 9.12001 2.65592 9.05601C2.71992 9.05601 2.83725 8.98134 3.00792 8.83201C3.17858 8.68267 3.35992 8.54401 3.55192 8.41601C3.65859 8.28801 4.03192 8.00001 4.67192 7.55201C5.31192 7.10401 6.00525 6.60267 6.75192 6.04801C7.54125 5.55734 8.20259 5.16267 8.73592 4.86401C9.29059 4.56534 9.61059 4.42667 9.69592 4.44801C9.75992 4.44801 9.85592 4.49067 9.98392 4.57601C10.1333 4.66134 10.2719 4.76801 10.3999 4.89601C10.5279 5.02401 10.6026 5.15201 10.6239 5.28001C10.7519 5.42934 10.6879 5.77067 10.4319 6.30401C10.3466 6.49601 10.2079 6.84801 10.0159 7.36001C9.82392 7.85067 9.61059 8.42667 9.37592 9.08801C9.16259 9.72801 8.94925 10.368 8.73592 11.008C8.54392 11.6267 8.38392 12.16 8.25592 12.608C8.08525 13.2693 7.92525 13.7813 7.77592 14.144C7.64792 14.5067 7.51992 14.8587 7.39192 15.2C7.28525 15.52 7.15725 15.968 7.00792 16.544C6.85859 16.8853 6.69859 17.3227 6.52792 17.856C6.37859 18.368 6.23992 18.88 6.11192 19.392C5.98392 19.8827 5.88792 20.288 5.82392 20.608C5.65325 21.0773 5.51459 21.4933 5.40792 21.856C5.30125 22.2187 5.19458 22.4427 5.08792 22.528ZM14.1182 20.544C13.7128 20.6933 13.3715 20.768 13.0942 20.768C12.8382 20.7467 12.5502 20.6187 12.2302 20.384C11.8248 20 11.6862 19.616 11.8142 19.232C11.9635 18.8267 12.3155 18.432 12.8702 18.048C13.2542 17.8133 13.5315 17.6853 13.7022 17.664C13.8942 17.6427 14.1822 17.7173 14.5662 17.888C15.2062 18.2933 15.4835 18.7413 15.3982 19.232C15.3342 19.7227 14.9075 20.16 14.1182 20.544ZM31.4439 23.808C31.0599 23.7013 30.7506 23.6053 30.5159 23.52C30.2813 23.456 30.1639 23.424 30.1639 23.424C30.2066 23.3173 30.1853 23.2213 30.0999 23.136C30.0359 23.0507 29.8866 22.9973 29.6519 22.976C29.3319 22.784 29.0333 22.5387 28.7559 22.24C28.4999 21.9627 28.2866 21.6853 28.1159 21.408C27.9453 21.1307 27.8173 20.896 27.7319 20.704C27.5826 20.384 27.5079 20.192 27.5079 20.128C27.5293 20.0427 27.6573 19.9467 27.8919 19.84C28.1266 19.6693 28.2973 19.616 28.4039 19.68C28.5319 19.744 28.6813 19.9573 28.8519 20.32C29.1293 20.8107 29.5986 21.184 30.2599 21.44C30.9426 21.696 31.6999 21.8133 32.5319 21.792C33.3853 21.7493 34.1959 21.5573 34.9639 21.216C35.7533 20.896 36.2439 20.5653 36.4359 20.224C36.6493 19.8613 36.5746 19.4027 36.2119 18.848C36.1479 18.6773 36.0733 18.5387 35.9879 18.432C35.9026 18.3253 35.7639 18.1867 35.5719 18.016C35.4013 17.8453 35.1133 17.568 34.7079 17.184C34.3879 17.0347 34.0893 16.896 33.8119 16.768C33.5559 16.64 33.2786 16.5013 32.9799 16.352C32.6386 16.1813 32.2226 15.936 31.7319 15.616C31.2626 15.2747 30.8146 14.9013 30.3879 14.496C29.9613 14.0907 29.6519 13.7173 29.4599 13.376C29.1186 13.056 28.8626 12.6187 28.6919 12.064C28.5213 11.488 28.4573 10.88 28.4999 10.24C28.5426 9.60001 28.7026 9.02401 28.9799 8.51201C29.1079 8.21334 29.3213 7.85067 29.6199 7.42401C29.9399 6.97601 30.2919 6.52801 30.6759 6.08001C31.0599 5.63201 31.4333 5.22667 31.7959 4.86401C32.1586 4.50134 32.4573 4.24534 32.6919 4.09601C32.8626 3.92534 33.0439 3.75467 33.2359 3.58401C33.4279 3.39201 33.5239 3.29601 33.5239 3.29601C33.5453 3.18934 33.5773 3.13601 33.6199 3.13601C33.6839 3.13601 33.7159 3.13601 33.7159 3.13601C33.8226 3.07201 34.0573 2.96534 34.4199 2.81601C34.7826 2.66667 35.1773 2.38934 35.6039 1.98401C37.0333 1.30134 38.1959 0.800007 39.0919 0.480007C39.9879 0.160007 40.7239 7.62939e-06 41.2999 7.62939e-06C41.8333 0.0213407 42.3133 0.14934 42.7399 0.384007C43.1879 0.59734 43.5506 0.88534 43.8279 1.24801C44.1266 1.61067 44.3079 2.04801 44.3719 2.56001C44.5213 3.07201 44.4786 3.66934 44.2439 4.35201C44.0093 5.01334 43.6573 5.64267 43.1879 6.24001C42.7399 6.81601 42.2493 7.25334 41.7159 7.55201C41.1186 7.80801 40.7133 7.92534 40.4999 7.90401C40.3079 7.86134 40.2226 7.63734 40.2439 7.23201C40.2439 7.06134 40.2973 6.85867 40.4039 6.62401C40.5319 6.38934 40.8626 5.97334 41.3959 5.37601C42.0786 4.37334 42.4946 3.57334 42.6439 2.97601C42.7933 2.37867 42.6546 2.04801 42.2279 1.98401C42.0999 1.94134 41.8653 1.94134 41.5239 1.98401C41.2039 2.02667 40.8413 2.09067 40.4359 2.17601C40.0519 2.24001 39.7213 2.31467 39.4439 2.40001C39.1666 2.46401 39.0279 2.51734 39.0279 2.56001C39.0279 2.56001 39.0279 2.59201 39.0279 2.65601C39.0279 2.72001 38.9853 2.74134 38.8999 2.72001C38.8573 2.72001 38.6759 2.80534 38.3559 2.97601C38.0359 3.14667 37.6519 3.37067 37.2039 3.64801C36.7559 3.92534 36.3079 4.20267 35.8599 4.48001C35.4119 4.75734 35.0279 5.00267 34.7079 5.21601C34.4093 5.40801 34.2493 5.52534 34.2279 5.56801C34.1853 5.80267 33.9399 6.01601 33.4919 6.20801C33.0653 6.46401 32.6706 6.83734 32.3079 7.32801C31.9666 7.81867 31.5826 8.42667 31.1559 9.15201C30.7933 9.64267 30.5373 10.176 30.3879 10.752C30.2386 11.3067 30.2386 11.7547 30.3879 12.096C30.4946 12.4373 30.8253 12.8747 31.3799 13.408C31.9346 13.9413 32.6279 14.4533 33.4599 14.944C34.1853 15.3493 34.8359 15.7547 35.4119 16.16C35.9879 16.544 36.4573 16.9173 36.8199 17.28C37.2039 17.6427 37.4599 17.9627 37.5879 18.24C37.8439 18.6027 38.0253 18.976 38.1319 19.36C38.2599 19.7227 38.3239 20.0747 38.3239 20.416C38.3453 20.7573 38.3133 21.0667 38.2279 21.344C38.0786 21.6853 37.8119 22.0373 37.4279 22.4C37.0653 22.7627 36.7559 22.9333 36.4999 22.912C36.2653 22.976 36.0839 23.0507 35.9559 23.136C35.8493 23.2213 35.7213 23.296 35.5719 23.36C35.4226 23.4453 35.1026 23.5307 34.6119 23.616C34.1426 23.7013 33.6199 23.7547 33.0439 23.776C32.4679 23.8187 31.9346 23.8293 31.4439 23.808ZM45.2314 21.984C44.9968 21.9413 44.7514 21.824 44.4954 21.632C44.2608 21.4187 44.0474 21.184 43.8554 20.928C43.6848 20.6507 43.5674 20.4053 43.5034 20.192C43.5034 20.1493 43.4714 20.096 43.4074 20.032C43.3648 19.968 43.3434 19.936 43.3434 19.936C43.2581 19.872 43.2048 19.5947 43.1834 19.104C43.1834 18.592 43.2154 18.0267 43.2794 17.408C43.3434 16.7893 43.4181 16.2987 43.5034 15.936C43.6101 15.5947 43.7701 15.136 43.9834 14.56C44.1968 13.9627 44.3781 13.4293 44.5274 12.96L45.3914 11.104L44.1114 10.752C43.9621 10.7093 43.8341 10.624 43.7274 10.496C43.6421 10.368 43.5994 10.2613 43.5994 10.176C43.5994 10.0053 43.6954 9.80267 43.8874 9.56801C44.0794 9.31201 44.2181 9.18401 44.3034 9.18401C44.4101 9.20534 44.6021 9.21601 44.8794 9.21601C45.1781 9.21601 45.4661 9.20534 45.7434 9.18401C46.0208 9.16267 46.1914 9.14134 46.2554 9.12001C46.3408 9.07734 46.4261 9.02401 46.5114 8.96001C46.5968 8.87467 46.6608 8.75734 46.7034 8.60801C46.8101 8.37334 46.9061 8.16001 46.9914 7.96801C47.0768 7.75467 47.1941 7.52001 47.3434 7.26401C47.4928 6.98667 47.6101 6.75201 47.6954 6.56001C47.8021 6.36801 47.9621 6.10134 48.1754 5.76001C48.2821 5.61067 48.3994 5.42934 48.5274 5.21601C48.6554 5.00267 48.8154 4.82134 49.0074 4.67201C49.1994 4.50134 49.3914 4.42667 49.5834 4.44801C49.7968 4.44801 50.0634 4.58667 50.3834 4.86401C50.5541 5.07734 50.6501 5.23734 50.6714 5.34401C50.6928 5.45067 50.6074 5.65334 50.4154 5.95201C50.2448 6.31467 50.0421 6.67734 49.8074 7.04001C49.5941 7.40267 49.3914 7.76534 49.1994 8.12801C48.8581 8.59734 48.7941 8.86401 49.0074 8.92801C49.2208 8.99201 49.8181 8.94934 50.7994 8.80001C51.4181 8.69334 51.8661 8.72534 52.1434 8.89601C52.4208 9.04534 52.5808 9.30134 52.6234 9.66401C52.6874 10.176 52.6341 10.4853 52.4634 10.592C52.2928 10.6987 51.8021 10.752 50.9914 10.752C50.4794 10.8373 50.0421 10.8907 49.6794 10.912C49.3168 10.912 49.0501 10.912 48.8794 10.912C48.6021 10.9333 48.4208 10.944 48.3354 10.944C48.2501 10.944 48.1221 10.9653 47.9514 11.008C47.7808 11.0507 47.6528 11.1253 47.5674 11.232C47.5034 11.3173 47.4288 11.4453 47.3434 11.616C47.2581 11.7013 47.1301 11.9253 46.9594 12.288C46.7888 12.6507 46.5754 13.0453 46.3194 13.472C46.0208 14.368 45.7648 15.264 45.5514 16.16C45.3381 17.0347 45.1674 17.888 45.0394 18.72C44.9541 19.2533 44.9648 19.6267 45.0714 19.84C45.1781 20.032 45.4554 20.1493 45.9034 20.192C46.1381 20.2133 46.5114 20.2133 47.0234 20.192C47.5568 20.1493 47.9728 20.0853 48.2714 20C48.5061 19.8933 48.7514 19.7867 49.0074 19.68C49.2634 19.552 49.4981 19.424 49.7114 19.296C49.9034 19.1893 50.0954 19.0827 50.2874 18.976C50.4794 18.848 50.5754 18.784 50.5754 18.784C50.6821 18.6133 50.7994 18.56 50.9274 18.624C51.0554 18.688 51.1621 18.848 51.2474 19.104C51.2474 19.36 51.1941 19.6267 51.0874 19.904C50.9808 20.1813 50.5861 20.512 49.9034 20.896C48.9434 21.4933 48.0581 21.856 47.2474 21.984C46.4581 22.0907 45.7861 22.0907 45.2314 21.984ZM53.5212 21.056C53.4358 20.8853 53.3292 20.7573 53.2012 20.672C53.0732 20.5653 53.0092 20.4693 53.0092 20.384C53.0092 20.2987 52.9985 20.2133 52.9772 20.128C52.9772 20.0213 52.9345 19.9253 52.8492 19.84C52.7425 19.712 52.7532 19.424 52.8812 18.976C53.0092 18.5067 53.2225 17.9413 53.5212 17.28C53.8198 16.5973 54.1718 15.8827 54.5772 15.136C54.7478 14.9653 54.9185 14.7413 55.0892 14.464C55.2598 14.1867 55.3878 14.0053 55.4732 13.92C55.4732 13.8347 55.5052 13.76 55.5692 13.696C55.6332 13.6107 55.7078 13.568 55.7932 13.568V13.376C55.7932 13.2693 55.8892 13.088 56.0812 12.832C56.2945 12.576 56.5505 12.2987 56.8492 12C57.1478 11.68 57.4572 11.3813 57.7772 11.104C58.0972 10.8053 58.3638 10.592 58.5772 10.464C59.0252 10.1653 59.4838 9.98401 59.9532 9.92001C60.4438 9.85601 60.8598 9.96267 61.2012 10.24C61.2652 10.304 61.3718 10.4107 61.5212 10.56C61.6705 10.7093 61.8412 10.88 62.0332 11.072C62.2465 11.2427 62.4598 11.424 62.6732 11.616L63.8572 12.672L63.2812 14.272C63.0038 15.1253 62.9292 15.872 63.0572 16.512C63.2065 17.152 63.4198 17.7067 63.6972 18.176C63.8038 18.4107 64.0172 18.6347 64.3372 18.848C64.6785 19.0613 64.9985 19.1893 65.2972 19.232C65.4678 19.2533 65.6278 19.3173 65.7772 19.424C65.9265 19.5307 66.0012 19.7013 66.0012 19.936C66.0012 20.1493 65.9585 20.32 65.8732 20.448C65.7878 20.576 65.6385 20.6613 65.4252 20.704C64.7212 20.7893 64.0598 20.6187 63.4412 20.192C62.8438 19.7653 62.2892 19.0613 61.7772 18.08C61.6918 17.952 61.5745 17.7173 61.4252 17.376C61.2972 17.0133 61.2225 16.7787 61.2012 16.672C61.1158 16.7787 60.9558 16.9813 60.7212 17.28C60.4865 17.5573 60.3052 17.76 60.1772 17.888C58.6625 19.424 57.3505 20.4587 56.2412 20.992C55.1532 21.504 54.2465 21.5253 53.5212 21.056ZM54.6732 19.264C54.6732 19.4133 54.8972 19.4133 55.3452 19.264C55.8145 19.0933 56.3158 18.7947 56.8492 18.368C57.5745 17.7493 58.2998 17.0667 59.0252 16.32C59.7718 15.5733 60.3692 14.88 60.8172 14.24L61.5212 13.088C61.3078 12.5973 61.0732 12.2667 60.8172 12.096C60.5825 11.904 60.3798 11.808 60.2092 11.808C59.9318 11.808 59.5158 12.064 58.9612 12.576C58.4278 13.088 57.8518 13.7707 57.2332 14.624C56.6145 15.4773 56.0278 16.416 55.4732 17.44C55.2598 17.8667 55.0678 18.2827 54.8972 18.688C54.7478 19.072 54.6732 19.264 54.6732 19.264ZM69.2179 21.216C69.1539 21.2373 69.0473 21.2267 68.8979 21.184C68.7486 21.1413 68.5993 21.088 68.4499 21.024C68.3006 20.96 68.2046 20.9067 68.1619 20.864C68.0766 20.7787 67.9913 20.6507 67.9059 20.48C67.8419 20.3093 67.8419 20.064 67.9059 19.744C67.9699 19.4027 68.1833 18.9653 68.5459 18.432C68.6526 18.2187 68.7806 17.8987 68.9299 17.472C69.0793 17.0453 69.2286 16.5973 69.3779 16.128C69.5486 15.6373 69.6979 15.2 69.8259 14.816C69.9753 14.432 70.0819 14.1653 70.1459 14.016C70.1886 13.6533 70.1673 13.3973 70.0819 13.248C70.0179 13.0773 69.8366 12.9813 69.5379 12.96C69.3246 12.96 69.1539 12.9387 69.0259 12.896C68.9193 12.8533 68.8659 12.64 68.8659 12.256C68.9086 11.9573 68.9833 11.7547 69.0899 11.648C69.2179 11.52 69.3886 11.3813 69.6019 11.232C69.8153 11.1253 70.0286 11.0507 70.2419 11.008C70.4766 10.9653 70.7006 10.9547 70.9139 10.976C71.1273 10.9973 71.2979 11.072 71.4259 11.2C71.5753 11.2853 71.6713 11.4773 71.7139 11.776C71.7566 12.0533 71.7779 12.3413 71.7779 12.64C71.7993 12.9387 71.8206 13.1627 71.8419 13.312C72.0553 13.1413 72.3433 12.9067 72.7059 12.608C73.0899 12.288 73.4206 11.9893 73.6979 11.712C74.0393 11.4773 74.4446 11.2427 74.9139 11.008C75.3833 10.752 75.7246 10.624 75.9379 10.624C76.1726 10.624 76.4073 10.688 76.6419 10.816C76.8766 10.9227 77.0366 11.0613 77.1219 11.232C77.3353 11.5947 77.4313 11.9147 77.4099 12.192C77.4099 12.4693 77.2926 12.7573 77.0579 13.056C76.8446 13.3333 76.5779 13.5253 76.2579 13.632C75.9593 13.7387 75.7673 13.792 75.6819 13.792C75.5539 13.792 75.3939 13.696 75.2019 13.504C75.0099 13.312 74.9033 13.152 74.8819 13.024C74.8819 12.96 74.7433 13.024 74.4659 13.216C74.2099 13.3867 73.9219 13.6107 73.6019 13.888C73.2819 14.144 73.0153 14.3787 72.8019 14.592C72.4393 15.04 72.0553 15.648 71.6499 16.416C71.2446 17.184 70.7646 18.112 70.2099 19.2C69.9539 19.7333 69.7726 20.192 69.6659 20.576C69.5593 20.9387 69.4099 21.152 69.2179 21.216ZM81.6772 23.808C80.9732 23.7013 80.4932 23.4347 80.2372 23.008C80.0025 22.6027 79.9492 21.9733 80.0772 21.12C80.2052 20.7147 80.2798 20.352 80.3012 20.032C80.3438 19.6907 80.4398 19.4773 80.5892 19.392C80.5892 19.392 80.5998 19.36 80.6212 19.296C80.6638 19.232 80.6532 19.168 80.5892 19.104C80.5892 18.8267 80.6852 18.4427 80.8772 17.952C80.9198 17.824 80.9732 17.6747 81.0372 17.504C81.1225 17.312 81.1652 17.216 81.1652 17.216C81.0585 17.0453 81.0585 16.9067 81.1652 16.8C81.2718 16.6933 81.3785 16.5973 81.4852 16.512C81.6132 16.4053 81.6238 16.288 81.5172 16.16C81.4745 16.0747 81.5278 15.8827 81.6772 15.584C81.8265 15.264 81.9972 14.9333 82.1892 14.592C82.3812 14.2507 82.5092 13.984 82.5732 13.792C82.5732 13.7493 82.6265 13.6 82.7332 13.344C82.8398 13.088 82.9678 12.7893 83.1172 12.448C83.2665 12.1067 83.4052 11.7973 83.5332 11.52C83.6825 11.2427 83.7785 11.0613 83.8212 10.976C84.0345 10.8693 83.9492 10.7947 83.5652 10.752C83.1812 10.7093 82.7758 10.6987 82.3492 10.72C81.6878 10.6987 81.1545 10.6667 80.7492 10.624C80.3652 10.5813 80.0452 10.4853 79.7892 10.336C79.5332 10.0373 79.4372 9.82401 79.5012 9.69601C79.5865 9.54667 79.8425 9.46134 80.2692 9.44001C80.5465 9.41867 80.7598 9.40801 80.9092 9.40801C81.0798 9.40801 81.2932 9.39734 81.5492 9.37601C81.8265 9.33334 82.2532 9.28001 82.8292 9.21601L84.4612 9.08801L84.5572 8.54401C84.7278 8.26667 84.8665 8.02134 84.9732 7.80801C85.1012 7.57334 85.2078 7.33867 85.2932 7.10401C85.3785 6.86934 85.4425 6.62401 85.4852 6.36801C85.4852 6.36801 85.5812 6.19734 85.7732 5.85601C85.9652 5.49334 86.0825 5.12001 86.1252 4.73601C86.3812 4.30934 86.6052 3.92534 86.7972 3.58401C86.9892 3.22134 87.1065 2.99734 87.1492 2.91201C87.3838 2.72001 87.5438 2.62401 87.6292 2.62401C87.7358 2.62401 87.9492 2.73067 88.2692 2.94401C88.4612 3.05067 88.6318 3.17867 88.7812 3.32801C88.9305 3.47734 89.0265 3.63734 89.0692 3.80801C89.1118 3.95734 89.0478 4.10667 88.8772 4.25601C88.8345 4.34134 88.7705 4.50134 88.6852 4.73601C88.5998 4.94934 88.5358 5.13067 88.4932 5.28001C88.3652 5.42934 88.2052 5.67467 88.0132 6.01601C87.8425 6.33601 87.7252 6.66667 87.6612 7.00801C87.4905 7.37067 87.3305 7.70134 87.1812 8.00001C87.0318 8.27734 86.9145 8.41601 86.8292 8.41601C86.8718 8.62934 86.9998 8.73601 87.2132 8.73601C87.4265 8.71467 87.7785 8.69334 88.2692 8.67201C88.6745 8.62934 88.9518 8.58667 89.1012 8.54401C89.2718 8.48001 89.4638 8.50134 89.6772 8.60801C89.7838 8.75734 89.8692 8.92801 89.9332 9.12001C89.9972 9.31201 90.0078 9.49334 89.9652 9.66401C89.9438 9.81334 89.8585 9.92001 89.7092 9.98401C89.6025 9.98401 89.3785 10.048 89.0372 10.176C88.7172 10.2827 88.3118 10.3467 87.8212 10.368L86.1252 10.528L85.5812 11.616C85.4318 11.8933 85.3038 12.1493 85.1972 12.384C85.0905 12.5973 85.0158 12.7253 84.9732 12.768C84.9732 12.896 84.8985 13.088 84.7492 13.344C84.6212 13.6 84.4825 13.8773 84.3332 14.176C84.2052 14.5387 84.0558 14.8693 83.8852 15.168C83.7358 15.4667 83.6612 15.616 83.6612 15.616C83.5758 15.616 83.5332 15.68 83.5332 15.808C83.6398 16.064 83.6078 16.256 83.4372 16.384C83.3305 16.448 83.2345 16.544 83.1492 16.672C83.0852 16.7787 83.0532 16.832 83.0532 16.832C83.1385 16.9173 83.1492 17.024 83.0852 17.152C83.0425 17.28 82.9785 17.4187 82.8932 17.568C82.8932 17.7387 82.8398 17.984 82.7332 18.304C82.6478 18.624 82.5518 18.9227 82.4452 19.2C82.4665 19.584 82.4878 19.8293 82.5092 19.936C82.5305 20.0427 82.5838 20.0853 82.6692 20.064C82.7758 20.0853 82.8718 20.0853 82.9572 20.064C83.0425 20.0427 83.1278 20.032 83.2132 20.032C83.5118 19.904 83.3518 20.6507 82.7332 22.272C82.3918 22.8053 82.1572 23.1893 82.0292 23.424C81.9012 23.68 81.7838 23.808 81.6772 23.808ZM99.6049 20.768C99.2849 20.768 98.9863 20.576 98.7089 20.192C98.4529 19.7867 98.2609 19.2747 98.1329 18.656C98.0263 18.016 97.9943 17.3547 98.0369 16.672C98.0369 15.9893 98.0689 15.4453 98.1329 15.04C98.2183 14.6133 98.3036 14.1973 98.3889 13.792C98.4529 13.664 98.4849 13.5573 98.4849 13.472C98.5063 13.3867 98.5276 13.248 98.5489 13.056C98.5916 12.864 98.6663 12.544 98.7729 12.096C98.8583 11.7333 98.9436 11.4347 99.0289 11.2C99.1143 10.9653 99.1996 10.8053 99.2849 10.72C99.3916 10.592 99.5303 10.5173 99.7009 10.496C99.8716 10.4533 100.042 10.464 100.213 10.528C100.384 10.592 100.522 10.7093 100.629 10.88C100.757 10.9867 100.821 11.232 100.821 11.616C100.842 11.9787 100.821 12.3627 100.757 12.768C100.693 13.152 100.597 13.4293 100.469 13.6C100.426 13.7067 100.373 13.984 100.309 14.432C100.266 14.88 100.213 15.3493 100.149 15.84C100.106 16.3307 100.053 16.7253 99.9889 17.024C99.9249 17.408 99.9569 17.7173 100.085 17.952C100.234 18.1867 100.501 18.1973 100.885 17.984C101.29 17.7493 101.824 17.152 102.485 16.192C102.933 15.552 103.274 15.0293 103.509 14.624C103.744 14.2187 103.925 13.8453 104.053 13.504C104.202 13.1413 104.352 12.7573 104.501 12.352C104.608 12.0107 104.704 11.7333 104.789 11.52C104.896 11.2853 104.992 11.136 105.077 11.072C105.226 10.9653 105.397 10.9227 105.589 10.944C105.802 10.9653 106.037 11.0613 106.293 11.232C106.549 11.488 106.677 11.7973 106.677 12.16C106.677 12.5013 106.549 12.928 106.293 13.44C106.122 13.7813 105.952 14.2187 105.781 14.752C105.632 15.2853 105.504 15.8293 105.397 16.384C105.312 16.9173 105.269 17.3547 105.269 17.696C105.269 18.1227 105.322 18.3787 105.429 18.464C105.557 18.528 105.706 18.56 105.877 18.56C106.133 18.56 106.442 18.464 106.805 18.272C107.168 18.08 107.573 17.7493 108.021 17.28C108.213 17.088 108.448 16.8107 108.725 16.448C109.002 16.064 109.269 15.6693 109.525 15.264C109.802 14.8373 110.026 14.464 110.197 14.144C110.389 13.824 110.485 13.6213 110.485 13.536C110.485 13.408 110.581 13.2267 110.773 12.992C110.901 12.8213 110.997 12.6933 111.061 12.608C111.146 12.5013 111.296 12.3947 111.509 12.288C111.68 12.2027 111.829 12.192 111.957 12.256C112.085 12.2987 112.224 12.4053 112.373 12.576C112.48 12.6613 112.533 12.7893 112.533 12.96C112.554 13.1307 112.565 13.344 112.565 13.6C112.501 13.8347 112.394 14.144 112.245 14.528C112.117 14.8907 111.968 15.2427 111.797 15.584C111.648 15.904 111.52 16.128 111.413 16.256C111.328 16.3413 111.178 16.5013 110.965 16.736C110.752 16.9493 110.56 17.184 110.389 17.44C109.856 18.08 109.472 18.496 109.237 18.688C109.002 18.88 108.8 19.0613 108.629 19.232C108.181 19.68 107.712 20.0213 107.221 20.256C106.73 20.4693 106.261 20.576 105.813 20.576C105.386 20.576 105.024 20.4693 104.725 20.256C104.064 19.9147 103.733 19.3387 103.733 18.528C103.733 18.3573 103.701 18.208 103.637 18.08C103.594 17.9307 103.573 17.856 103.573 17.856C103.488 17.856 103.37 17.8773 103.221 17.92C103.093 17.9627 102.954 18.112 102.805 18.368C102.613 18.7307 102.304 19.104 101.877 19.488C101.472 19.8507 101.056 20.16 100.629 20.416C100.202 20.6507 99.8609 20.768 99.6049 20.768ZM115.272 21.216C114.952 21.1733 114.675 20.9493 114.44 20.544C114.227 20.1173 114.099 19.7333 114.056 19.392C114.078 19.2213 114.099 18.976 114.12 18.656C114.163 18.336 114.206 18.0053 114.248 17.664C114.334 17.2587 114.451 16.768 114.6 16.192C114.75 15.5947 114.899 14.9973 115.048 14.4C115.219 13.8027 115.368 13.2907 115.496 12.864C115.624 12.4373 115.71 12.1813 115.752 12.096C115.859 11.9253 116.03 11.8827 116.264 11.968C116.499 12.0533 116.691 12.1813 116.84 12.352C116.968 12.5227 117.043 12.7253 117.064 12.96C117.107 13.1947 117.075 13.536 116.968 13.984C116.883 14.432 116.712 15.0933 116.456 15.968C116.222 16.8213 116.04 17.5147 115.912 18.048C115.806 18.56 115.763 19.104 115.784 19.68C115.699 20.4053 115.635 20.8533 115.592 21.024C115.55 21.1733 115.443 21.2373 115.272 21.216ZM118.952 8.44801C118.867 8.51201 118.782 8.54401 118.696 8.54401C118.632 8.52267 118.515 8.45867 118.344 8.35201C118.195 8.33067 118.003 8.23467 117.768 8.06401C117.555 7.87201 117.363 7.68001 117.192 7.48801C117.043 7.27467 116.968 7.14667 116.968 7.10401C116.947 6.89067 116.958 6.62401 117 6.30401C117.064 5.96267 117.182 5.66401 117.352 5.40801C117.523 5.13067 117.768 4.98134 118.088 4.96001C118.174 4.96001 118.248 4.97067 118.312 4.99201C118.376 5.01334 118.568 5.08801 118.888 5.21601C119.059 5.53601 119.23 5.89867 119.4 6.30401C119.571 6.68801 119.646 7.07201 119.624 7.45601C119.603 7.81867 119.379 8.14934 118.952 8.44801ZM123.641 22.144C123.342 22.0587 123.097 21.9627 122.905 21.856C122.713 21.728 122.457 21.5253 122.137 21.248C121.881 20.9067 121.678 20.5867 121.529 20.288C121.401 19.9893 121.316 19.648 121.273 19.264C121.23 18.8587 121.209 18.3467 121.209 17.728C121.209 17.472 121.252 17.088 121.337 16.576C121.444 16.064 121.561 15.5307 121.689 14.976C121.838 14.4 121.966 13.888 122.073 13.44C122.201 12.992 122.276 12.704 122.297 12.576C122.361 12.2987 122.254 12.1387 121.977 12.096C121.7 12.0533 121.39 12.0427 121.049 12.064C120.729 12.064 120.516 12.032 120.409 11.968C120.324 11.9467 120.281 11.9147 120.281 11.872C120.281 11.808 120.281 11.776 120.281 11.776C120.281 11.6907 120.27 11.6373 120.249 11.616C120.249 11.5733 120.217 11.4987 120.153 11.392C120.11 11.3067 120.132 11.1893 120.217 11.04C120.324 10.8693 120.494 10.7627 120.729 10.72C120.921 10.6773 121.177 10.6453 121.497 10.624C121.838 10.5813 122.18 10.5067 122.521 10.4C122.862 10.272 123.14 10.08 123.353 9.82401C123.545 9.35467 123.769 8.83201 124.025 8.25601C124.281 7.68001 124.526 7.16801 124.761 6.72001C125.017 6.25067 125.188 5.96267 125.273 5.85601C125.636 5.66401 125.902 5.58934 126.073 5.63201C126.244 5.65334 126.436 5.83467 126.649 6.17601C126.756 6.32534 126.83 6.44267 126.873 6.52801C126.937 6.61334 126.948 6.74134 126.905 6.91201C126.862 7.08267 126.745 7.34934 126.553 7.71201C126.382 8.07467 126.116 8.59734 125.753 9.28001C125.646 9.49334 125.55 9.68534 125.465 9.85601C125.38 10.0053 125.337 10.08 125.337 10.08C125.422 10.1013 125.55 10.112 125.721 10.112C125.892 10.112 126.105 10.1013 126.361 10.08C126.596 10.0373 126.894 10.0053 127.257 9.98401C127.62 9.94134 127.908 9.94134 128.121 9.98401C128.612 9.98401 128.974 10.08 129.209 10.272C129.444 10.4427 129.572 10.7413 129.593 11.168C129.636 11.4027 129.582 11.5413 129.433 11.584C129.305 11.6267 128.953 11.648 128.377 11.648C128.185 11.648 127.886 11.6587 127.481 11.68C127.076 11.7013 126.649 11.7227 126.201 11.744C125.774 11.7653 125.401 11.7973 125.081 11.84C124.782 11.8613 124.633 11.8933 124.633 11.936C124.569 11.9787 124.462 12.1813 124.313 12.544C124.185 12.9067 124.046 13.3227 123.897 13.792C123.769 14.24 123.652 14.6453 123.545 15.008C123.396 15.7333 123.278 16.4587 123.193 17.184C123.129 17.9093 123.118 18.5387 123.161 19.072C123.204 19.6053 123.321 19.9787 123.513 20.192C123.705 20.384 124.078 20.4267 124.633 20.32C125.188 20.192 125.636 19.9893 125.977 19.712C126.361 19.392 126.67 19.232 126.905 19.232C127.161 19.232 127.3 19.3493 127.321 19.584C127.364 19.7973 127.246 20.1067 126.969 20.512C126.713 20.896 126.393 21.2373 126.009 21.536C125.625 21.8133 125.22 22.016 124.793 22.144C124.388 22.2507 124.004 22.2507 123.641 22.144ZM141.371 21.504C140.965 21.6107 140.667 21.6533 140.475 21.632C140.283 21.5893 140.027 21.408 139.707 21.088C139.515 20.7893 139.344 20.5227 139.195 20.288C139.045 20.0533 138.949 19.6373 138.907 19.04C138.885 18.6347 138.907 18.1973 138.971 17.728C139.056 17.2373 139.088 16.8853 139.067 16.672C139.237 15.8827 139.301 15.2533 139.259 14.784C139.237 14.2933 139.173 14.048 139.067 14.048C138.832 14.0053 138.405 14.24 137.787 14.752C137.189 15.2427 136.496 15.8933 135.707 16.704C134.939 17.4933 134.171 18.3253 133.403 19.2C132.997 19.7547 132.709 20.1707 132.539 20.448C132.368 20.704 132.24 20.832 132.155 20.832C132.005 20.832 131.803 20.7787 131.547 20.672C131.291 20.5653 131.067 20.4373 130.875 20.288C130.683 20.1173 130.576 19.968 130.555 19.84C130.555 19.7547 130.608 19.5307 130.715 19.168C130.821 18.784 130.949 18.3467 131.099 17.856C131.269 17.3653 131.419 16.9067 131.547 16.48C131.675 16.0533 131.771 15.7547 131.835 15.584C132.027 15.0293 132.251 14.3573 132.507 13.568C132.784 12.7573 133.029 12.0427 133.243 11.424C133.328 11.1467 133.477 10.752 133.691 10.24C133.904 9.70667 134.117 9.17334 134.331 8.64001C134.544 8.10667 134.693 7.71201 134.779 7.45601C134.843 7.28534 134.96 6.98667 135.131 6.56001C135.301 6.11201 135.483 5.62134 135.675 5.08801C135.888 4.55467 136.08 4.06401 136.251 3.61601C136.443 3.14667 136.571 2.80534 136.635 2.59201C136.613 2.40001 136.624 2.22934 136.667 2.08001C136.731 1.90934 136.795 1.78134 136.859 1.69601C136.944 1.69601 137.04 1.69601 137.147 1.69601C137.253 1.67467 137.307 1.66401 137.307 1.66401C137.307 1.62134 137.392 1.66401 137.563 1.79201C137.733 1.92001 137.893 2.08001 138.043 2.27201C138.213 2.44267 138.299 2.59201 138.299 2.72001C138.405 2.99734 138.416 3.36001 138.331 3.80801C138.245 4.23467 138.021 4.88534 137.659 5.76001C137.424 6.10134 137.189 6.61334 136.955 7.29601C136.741 7.97867 136.528 8.55467 136.315 9.02401C136.229 9.17334 136.069 9.49334 135.835 9.98401C135.621 10.4747 135.365 11.0507 135.067 11.712C134.789 12.3733 134.523 13.0453 134.267 13.728C134.011 14.3893 133.808 14.9867 133.659 15.52C133.445 16.032 133.371 16.3733 133.435 16.544C133.499 16.7147 133.755 16.5227 134.203 15.968C134.8 15.328 135.429 14.6773 136.091 14.016C136.752 13.3547 137.371 12.8 137.947 12.352C138.544 11.8827 139.024 11.6693 139.387 11.712C139.579 11.7547 139.781 11.8827 139.995 12.096C140.229 12.3093 140.453 12.5547 140.667 12.832C140.88 13.1093 141.029 13.376 141.115 13.632C141.2 13.952 141.253 14.2293 141.275 14.464C141.317 14.6987 141.328 15.0507 141.307 15.52C141.285 15.968 141.232 16.6827 141.147 17.664C141.019 18.3893 140.933 18.912 140.891 19.232C140.848 19.5307 140.859 19.744 140.923 19.872C141.008 20 141.136 20.1387 141.307 20.288C141.627 20.544 141.787 20.768 141.787 20.96C141.808 21.152 141.669 21.3333 141.371 21.504ZM155.044 21.984C154.809 21.9413 154.564 21.824 154.308 21.632C154.073 21.4187 153.86 21.184 153.668 20.928C153.497 20.6507 153.38 20.4053 153.316 20.192C153.316 20.1493 153.284 20.096 153.22 20.032C153.177 19.968 153.156 19.936 153.156 19.936C153.071 19.872 153.017 19.5947 152.996 19.104C152.996 18.592 153.028 18.0267 153.092 17.408C153.156 16.7893 153.231 16.2987 153.316 15.936C153.423 15.5947 153.583 15.136 153.796 14.56C154.009 13.9627 154.191 13.4293 154.34 12.96L155.204 11.104L153.924 10.752C153.775 10.7093 153.647 10.624 153.54 10.496C153.455 10.368 153.412 10.2613 153.412 10.176C153.412 10.0053 153.508 9.80267 153.7 9.56801C153.892 9.31201 154.031 9.18401 154.116 9.18401C154.223 9.20534 154.415 9.21601 154.692 9.21601C154.991 9.21601 155.279 9.20534 155.556 9.18401C155.833 9.16267 156.004 9.14134 156.068 9.12001C156.153 9.07734 156.239 9.02401 156.324 8.96001C156.409 8.87467 156.473 8.75734 156.516 8.60801C156.623 8.37334 156.719 8.16001 156.804 7.96801C156.889 7.75467 157.007 7.52001 157.156 7.26401C157.305 6.98667 157.423 6.75201 157.508 6.56001C157.615 6.36801 157.775 6.10134 157.988 5.76001C158.095 5.61067 158.212 5.42934 158.34 5.21601C158.468 5.00267 158.628 4.82134 158.82 4.67201C159.012 4.50134 159.204 4.42667 159.396 4.44801C159.609 4.44801 159.876 4.58667 160.196 4.86401C160.367 5.07734 160.463 5.23734 160.484 5.34401C160.505 5.45067 160.42 5.65334 160.228 5.95201C160.057 6.31467 159.855 6.67734 159.62 7.04001C159.407 7.40267 159.204 7.76534 159.012 8.12801C158.671 8.59734 158.607 8.86401 158.82 8.92801C159.033 8.99201 159.631 8.94934 160.612 8.80001C161.231 8.69334 161.679 8.72534 161.956 8.89601C162.233 9.04534 162.393 9.30134 162.436 9.66401C162.5 10.176 162.447 10.4853 162.276 10.592C162.105 10.6987 161.615 10.752 160.804 10.752C160.292 10.8373 159.855 10.8907 159.492 10.912C159.129 10.912 158.863 10.912 158.692 10.912C158.415 10.9333 158.233 10.944 158.148 10.944C158.063 10.944 157.935 10.9653 157.764 11.008C157.593 11.0507 157.465 11.1253 157.38 11.232C157.316 11.3173 157.241 11.4453 157.156 11.616C157.071 11.7013 156.943 11.9253 156.772 12.288C156.601 12.6507 156.388 13.0453 156.132 13.472C155.833 14.368 155.577 15.264 155.364 16.16C155.151 17.0347 154.98 17.888 154.852 18.72C154.767 19.2533 154.777 19.6267 154.884 19.84C154.991 20.032 155.268 20.1493 155.716 20.192C155.951 20.2133 156.324 20.2133 156.836 20.192C157.369 20.1493 157.785 20.0853 158.084 20C158.319 19.8933 158.564 19.7867 158.82 19.68C159.076 19.552 159.311 19.424 159.524 19.296C159.716 19.1893 159.908 19.0827 160.1 18.976C160.292 18.848 160.388 18.784 160.388 18.784C160.495 18.6133 160.612 18.56 160.74 18.624C160.868 18.688 160.975 18.848 161.06 19.104C161.06 19.36 161.007 19.6267 160.9 19.904C160.793 20.1813 160.399 20.512 159.716 20.896C158.756 21.4933 157.871 21.856 157.06 21.984C156.271 22.0907 155.599 22.0907 155.044 21.984ZM173.19 21.216C172.656 21.472 172.176 21.5467 171.75 21.44C171.323 21.312 170.982 21.024 170.726 20.576C170.491 20.128 170.374 19.5627 170.374 18.88C170.374 18.6453 170.406 18.2933 170.47 17.824C170.555 17.3547 170.651 16.864 170.758 16.352C170.864 15.8187 170.982 15.36 171.11 14.976C171.174 14.784 171.216 14.6347 171.238 14.528C171.28 14.4213 171.259 14.368 171.174 14.368C171.088 14.368 170.982 14.4213 170.854 14.528C170.747 14.6347 170.662 14.72 170.598 14.784C170.128 15.168 169.638 15.6373 169.126 16.192C168.635 16.7467 168.176 17.312 167.75 17.888C167.323 18.4427 166.971 18.9547 166.694 19.424C166.438 19.8933 166.31 20.2347 166.31 20.448C166.31 20.768 166.15 20.992 165.83 21.12C165.51 21.248 165.232 21.2373 164.998 21.088C164.592 20.8533 164.336 20.576 164.23 20.256C164.144 19.9147 164.134 19.3493 164.198 18.56C164.262 17.5573 164.347 16.6613 164.454 15.872C164.56 15.0827 164.731 14.2293 164.966 13.312C165.222 12.3733 165.552 11.232 165.958 9.88801C166.235 9.14134 166.491 8.43734 166.726 7.77601C166.96 7.09334 167.163 6.51734 167.334 6.04801C167.526 5.57867 167.643 5.29067 167.686 5.18401C167.792 5.07734 167.931 4.82134 168.102 4.41601C168.272 3.98934 168.422 3.56267 168.55 3.13601C168.699 2.70934 168.774 2.45334 168.774 2.36801C168.774 2.19734 168.806 2.04801 168.87 1.92001C168.934 1.77067 169.008 1.65334 169.094 1.56801C169.179 1.48267 169.254 1.40801 169.318 1.34401C169.382 1.28001 169.414 1.24801 169.414 1.24801C169.52 1.24801 169.648 1.28001 169.798 1.34401C169.968 1.40801 170.128 1.50401 170.278 1.63201C170.427 1.73867 170.523 1.87734 170.566 2.04801C170.715 2.34667 170.79 2.65601 170.79 2.97601C170.79 3.27467 170.694 3.64801 170.502 4.09601C170.331 4.54401 170.032 5.16267 169.606 5.95201C169.264 6.61334 168.955 7.29601 168.678 8.00001C168.4 8.70401 168.134 9.44001 167.878 10.208C167.771 10.528 167.622 10.976 167.43 11.552C167.259 12.128 167.078 12.7253 166.886 13.344C166.715 13.9627 166.566 14.5173 166.438 15.008C166.331 15.4773 166.278 15.776 166.278 15.904C166.278 16.0533 166.363 16.128 166.534 16.128C166.704 16.1067 166.875 15.9787 167.046 15.744C167.131 15.5733 167.312 15.36 167.59 15.104C167.867 14.848 168.091 14.6453 168.262 14.496C168.432 14.3467 168.667 14.1333 168.966 13.856C169.264 13.5787 169.584 13.3013 169.926 13.024C170.267 12.7253 170.587 12.48 170.886 12.288C171.184 12.0747 171.419 11.968 171.59 11.968C171.867 11.968 172.123 12.0747 172.358 12.288C172.592 12.48 172.752 12.6933 172.838 12.928C172.902 12.992 172.966 13.0773 173.03 13.184C173.094 13.2693 173.136 13.3333 173.158 13.376C173.264 13.4613 173.264 13.8347 173.158 14.496C173.072 15.136 172.859 15.968 172.518 16.992C172.326 17.7813 172.166 18.4533 172.038 19.008C171.931 19.5413 171.963 19.808 172.134 19.808C172.134 19.808 172.24 19.744 172.454 19.616C172.688 19.488 172.934 19.3493 173.19 19.2C173.808 18.7947 174.342 18.56 174.79 18.496C175.259 18.4107 175.494 18.4853 175.494 18.72C175.494 18.8053 175.462 18.8907 175.398 18.976C175.334 19.04 175.302 19.1147 175.302 19.2C175.302 19.2 175.302 19.2107 175.302 19.232C175.302 19.232 175.302 19.2747 175.302 19.36C175.302 19.4027 175.163 19.5733 174.886 19.872C174.608 20.1493 174.299 20.4373 173.958 20.736C173.638 21.0133 173.382 21.1733 173.19 21.216ZM179.881 21.44C179.049 21.0987 178.505 20.6293 178.249 20.032C178.014 19.4133 177.972 18.464 178.121 17.184C178.164 16.5227 178.185 16.0853 178.185 15.872C178.185 15.6587 178.068 15.4453 177.833 15.232C177.769 15.1467 177.652 15.0293 177.481 14.88C177.332 14.7307 177.268 14.6027 177.289 14.496C177.268 14.3467 177.278 14.1867 177.321 14.016C177.364 13.824 177.428 13.728 177.513 13.728C177.598 13.728 177.684 13.7067 177.769 13.664C177.876 13.6213 177.972 13.6213 178.057 13.664C178.142 13.664 178.238 13.6747 178.345 13.696C178.452 13.7173 178.505 13.7707 178.505 13.856C178.59 14.0053 178.729 14.0267 178.921 13.92C179.113 13.792 179.316 13.5147 179.529 13.088C179.742 12.7467 180.02 12.4053 180.361 12.064C180.724 11.7227 181.076 11.4133 181.417 11.136C181.78 10.8373 182.078 10.624 182.313 10.496C182.42 10.4533 182.58 10.4 182.793 10.336C183.006 10.272 183.23 10.2187 183.465 10.176C183.721 10.1333 183.934 10.1227 184.105 10.144C184.489 10.1653 184.809 10.272 185.065 10.464C185.342 10.656 185.598 10.88 185.833 11.136C186.11 11.328 186.281 11.584 186.345 11.904C186.43 12.224 186.452 12.5653 186.409 12.928C186.366 13.2907 186.27 13.6213 186.121 13.92C186.057 14.1333 185.876 14.3893 185.577 14.688C185.278 14.9867 184.937 15.2747 184.553 15.552C184.169 15.8293 183.817 16.032 183.497 16.16C183.22 16.224 182.857 16.2773 182.409 16.32C181.982 16.3627 181.577 16.384 181.193 16.384C180.83 16.3627 180.585 16.32 180.457 16.256C180.308 16.1707 180.19 16.288 180.105 16.608C180.02 16.928 179.956 17.3867 179.913 17.984C179.87 18.4533 179.87 18.7947 179.913 19.008C179.956 19.2213 179.998 19.3707 180.041 19.456C180.19 19.6053 180.393 19.7973 180.649 20.032C180.926 20.2453 181.31 20.2773 181.801 20.128C182.206 20.0213 182.601 19.744 182.985 19.296C183.39 18.848 183.764 18.4853 184.105 18.208C184.19 18.0587 184.329 17.9733 184.521 17.952C184.734 17.9093 184.958 17.92 185.193 17.984C185.428 18.1333 185.524 18.3147 185.481 18.528C185.46 18.72 185.353 19.0187 185.161 19.424C185.097 19.5733 184.948 19.7653 184.713 20C184.5 20.2133 184.254 20.4373 183.977 20.672C183.721 20.8853 183.486 21.056 183.273 21.184C182.633 21.5253 182.036 21.7067 181.481 21.728C180.926 21.728 180.393 21.632 179.881 21.44ZM181.769 14.944C182.238 14.8373 182.612 14.7627 182.889 14.72C183.166 14.6773 183.433 14.56 183.689 14.368C183.945 14.1547 184.265 13.76 184.649 13.184C184.734 12.9493 184.756 12.7147 184.713 12.48C184.692 12.2453 184.638 12.0853 184.553 12C184.361 11.7867 184.126 11.7227 183.849 11.808C183.593 11.872 183.348 11.9893 183.113 12.16C182.964 12.224 182.74 12.384 182.441 12.64C182.164 12.8747 181.886 13.152 181.609 13.472C181.332 13.7707 181.108 14.048 180.937 14.304C180.766 14.56 180.724 14.7093 180.809 14.752C180.766 14.8373 180.884 14.8907 181.161 14.912C181.46 14.9333 181.662 14.944 181.769 14.944ZM196.021 21.056C195.936 20.8853 195.829 20.7573 195.701 20.672C195.573 20.5653 195.509 20.4693 195.509 20.384C195.509 20.2987 195.499 20.2133 195.477 20.128C195.477 20.0213 195.435 19.9253 195.349 19.84C195.243 19.712 195.253 19.424 195.381 18.976C195.509 18.5067 195.723 17.9413 196.021 17.28C196.32 16.5973 196.672 15.8827 197.077 15.136C197.248 14.9653 197.419 14.7413 197.589 14.464C197.76 14.1867 197.888 14.0053 197.973 13.92C197.973 13.8347 198.005 13.76 198.069 13.696C198.133 13.6107 198.208 13.568 198.293 13.568V13.376C198.293 13.2693 198.389 13.088 198.581 12.832C198.795 12.576 199.051 12.2987 199.349 12C199.648 11.68 199.957 11.3813 200.277 11.104C200.597 10.8053 200.864 10.592 201.077 10.464C201.525 10.1653 201.984 9.98401 202.453 9.92001C202.944 9.85601 203.36 9.96267 203.701 10.24C203.765 10.304 203.872 10.4107 204.021 10.56C204.171 10.7093 204.341 10.88 204.533 11.072C204.747 11.2427 204.96 11.424 205.173 11.616L206.357 12.672L205.781 14.272C205.504 15.1253 205.429 15.872 205.557 16.512C205.707 17.152 205.92 17.7067 206.197 18.176C206.304 18.4107 206.517 18.6347 206.837 18.848C207.179 19.0613 207.499 19.1893 207.797 19.232C207.968 19.2533 208.128 19.3173 208.277 19.424C208.427 19.5307 208.501 19.7013 208.501 19.936C208.501 20.1493 208.459 20.32 208.373 20.448C208.288 20.576 208.139 20.6613 207.925 20.704C207.221 20.7893 206.56 20.6187 205.941 20.192C205.344 19.7653 204.789 19.0613 204.277 18.08C204.192 17.952 204.075 17.7173 203.925 17.376C203.797 17.0133 203.723 16.7787 203.701 16.672C203.616 16.7787 203.456 16.9813 203.221 17.28C202.987 17.5573 202.805 17.76 202.677 17.888C201.163 19.424 199.851 20.4587 198.741 20.992C197.653 21.504 196.747 21.5253 196.021 21.056ZM197.173 19.264C197.173 19.4133 197.397 19.4133 197.845 19.264C198.315 19.0933 198.816 18.7947 199.349 18.368C200.075 17.7493 200.8 17.0667 201.525 16.32C202.272 15.5733 202.869 14.88 203.317 14.24L204.021 13.088C203.808 12.5973 203.573 12.2667 203.317 12.096C203.083 11.904 202.88 11.808 202.709 11.808C202.432 11.808 202.016 12.064 201.461 12.576C200.928 13.088 200.352 13.7707 199.733 14.624C199.115 15.4773 198.528 16.416 197.973 17.44C197.76 17.8667 197.568 18.2827 197.397 18.688C197.248 19.072 197.173 19.264 197.173 19.264ZM212.646 23.808C211.942 23.7013 211.462 23.4347 211.206 23.008C210.971 22.6027 210.918 21.9733 211.046 21.12C211.174 20.7147 211.249 20.352 211.27 20.032C211.313 19.6907 211.409 19.4773 211.558 19.392C211.558 19.392 211.569 19.36 211.59 19.296C211.633 19.232 211.622 19.168 211.558 19.104C211.558 18.8267 211.654 18.4427 211.846 17.952C211.889 17.824 211.942 17.6747 212.006 17.504C212.091 17.312 212.134 17.216 212.134 17.216C212.027 17.0453 212.027 16.9067 212.134 16.8C212.241 16.6933 212.347 16.5973 212.454 16.512C212.582 16.4053 212.593 16.288 212.486 16.16C212.443 16.0747 212.497 15.8827 212.646 15.584C212.795 15.264 212.966 14.9333 213.158 14.592C213.35 14.2507 213.478 13.984 213.542 13.792C213.542 13.7493 213.595 13.6 213.702 13.344C213.809 13.088 213.937 12.7893 214.086 12.448C214.235 12.1067 214.374 11.7973 214.502 11.52C214.651 11.2427 214.747 11.0613 214.79 10.976C215.003 10.8693 214.918 10.7947 214.534 10.752C214.15 10.7093 213.745 10.6987 213.318 10.72C212.657 10.6987 212.123 10.6667 211.718 10.624C211.334 10.5813 211.014 10.4853 210.758 10.336C210.502 10.0373 210.406 9.82401 210.47 9.69601C210.555 9.54667 210.811 9.46134 211.238 9.44001C211.515 9.41867 211.729 9.40801 211.878 9.40801C212.049 9.40801 212.262 9.39734 212.518 9.37601C212.795 9.33334 213.222 9.28001 213.798 9.21601L215.43 9.08801L215.526 8.54401C215.697 8.26667 215.835 8.02134 215.942 7.80801C216.07 7.57334 216.177 7.33867 216.262 7.10401C216.347 6.86934 216.411 6.62401 216.454 6.36801C216.454 6.36801 216.55 6.19734 216.742 5.85601C216.934 5.49334 217.051 5.12001 217.094 4.73601C217.35 4.30934 217.574 3.92534 217.766 3.58401C217.958 3.22134 218.075 2.99734 218.118 2.91201C218.353 2.72001 218.513 2.62401 218.598 2.62401C218.705 2.62401 218.918 2.73067 219.238 2.94401C219.43 3.05067 219.601 3.17867 219.75 3.32801C219.899 3.47734 219.995 3.63734 220.038 3.80801C220.081 3.95734 220.017 4.10667 219.846 4.25601C219.803 4.34134 219.739 4.50134 219.654 4.73601C219.569 4.94934 219.505 5.13067 219.462 5.28001C219.334 5.42934 219.174 5.67467 218.982 6.01601C218.811 6.33601 218.694 6.66667 218.63 7.00801C218.459 7.37067 218.299 7.70134 218.15 8.00001C218.001 8.27734 217.883 8.41601 217.798 8.41601C217.841 8.62934 217.969 8.73601 218.182 8.73601C218.395 8.71467 218.747 8.69334 219.238 8.67201C219.643 8.62934 219.921 8.58667 220.07 8.54401C220.241 8.48001 220.433 8.50134 220.646 8.60801C220.753 8.75734 220.838 8.92801 220.902 9.12001C220.966 9.31201 220.977 9.49334 220.934 9.66401C220.913 9.81334 220.827 9.92001 220.678 9.98401C220.571 9.98401 220.347 10.048 220.006 10.176C219.686 10.2827 219.281 10.3467 218.79 10.368L217.094 10.528L216.55 11.616C216.401 11.8933 216.273 12.1493 216.166 12.384C216.059 12.5973 215.985 12.7253 215.942 12.768C215.942 12.896 215.867 13.088 215.718 13.344C215.59 13.6 215.451 13.8773 215.302 14.176C215.174 14.5387 215.025 14.8693 214.854 15.168C214.705 15.4667 214.63 15.616 214.63 15.616C214.545 15.616 214.502 15.68 214.502 15.808C214.609 16.064 214.577 16.256 214.406 16.384C214.299 16.448 214.203 16.544 214.118 16.672C214.054 16.7787 214.022 16.832 214.022 16.832C214.107 16.9173 214.118 17.024 214.054 17.152C214.011 17.28 213.947 17.4187 213.862 17.568C213.862 17.7387 213.809 17.984 213.702 18.304C213.617 18.624 213.521 18.9227 213.414 19.2C213.435 19.584 213.457 19.8293 213.478 19.936C213.499 20.0427 213.553 20.0853 213.638 20.064C213.745 20.0853 213.841 20.0853 213.926 20.064C214.011 20.0427 214.097 20.032 214.182 20.032C214.481 19.904 214.321 20.6507 213.702 22.272C213.361 22.8053 213.126 23.1893 212.998 23.424C212.87 23.68 212.753 23.808 212.646 23.808ZM223.72 20.992C223.272 21.0773 222.984 21.1093 222.856 21.088C222.749 21.0453 222.578 20.9173 222.344 20.704C222.002 20.5333 221.714 20.32 221.48 20.064C221.266 19.808 221.106 19.5413 221 19.264C220.914 18.9653 220.882 18.72 220.904 18.528C220.968 17.7813 221.149 16.9813 221.448 16.128C221.746 15.2747 222.109 14.4533 222.536 13.664C222.962 12.8747 223.421 12.2027 223.912 11.648C224.424 11.072 224.914 10.6987 225.384 10.528C225.81 10.3573 226.216 10.2933 226.6 10.336C226.984 10.3787 227.261 10.5813 227.432 10.944C227.752 11.5627 227.677 11.9573 227.208 12.128C227.144 12.128 227.069 12.16 226.984 12.224C226.898 12.2667 226.856 12.3307 226.856 12.416C226.941 12.4587 227.176 12.4693 227.56 12.448C227.944 12.4053 228.328 12.3413 228.712 12.256C229.117 12.1493 229.384 12.0427 229.512 11.936C229.64 11.872 229.736 11.84 229.8 11.84C229.864 11.84 230.024 11.8613 230.28 11.904C230.642 12.0107 230.824 12.1387 230.824 12.288C230.824 12.3733 230.856 12.4587 230.92 12.544C230.984 12.608 231.058 12.64 231.144 12.64C231.293 12.6613 231.272 12.7573 231.08 12.928C230.909 13.0987 230.61 13.3333 230.184 13.632C229.778 13.888 229.522 14.0587 229.416 14.144C229.33 14.208 229.32 14.3573 229.384 14.592C229.554 14.9973 229.565 15.4667 229.416 16C229.266 16.5333 229 17.0773 228.616 17.632C228.232 18.1867 227.762 18.7093 227.208 19.2C226.674 19.6693 226.098 20.0747 225.48 20.416C224.882 20.736 224.296 20.928 223.72 20.992ZM223.176 19.584C223.261 19.584 223.41 19.5413 223.624 19.456C223.837 19.3493 224.008 19.264 224.136 19.2C224.221 19.1147 224.328 19.0187 224.456 18.912C224.605 18.784 224.722 18.7093 224.808 18.688C224.893 18.688 225 18.656 225.128 18.592C225.256 18.5067 225.437 18.3467 225.672 18.112C225.906 17.856 226.216 17.4827 226.6 16.992C227.026 16.5227 227.357 16.096 227.592 15.712C227.826 15.3067 227.89 14.9333 227.784 14.592C227.762 14.5067 227.698 14.4533 227.592 14.432C227.506 14.4107 227.389 14.3573 227.24 14.272C227.026 14.272 226.824 14.2187 226.632 14.112C226.461 13.984 226.258 13.824 226.024 13.632L225.512 12.992L224.968 13.536C224.626 13.8773 224.264 14.3893 223.88 15.072C223.517 15.7333 223.208 16.416 222.952 17.12C222.696 17.8027 222.546 18.3467 222.504 18.752C222.482 19.072 222.536 19.2853 222.664 19.392C222.792 19.4987 222.962 19.5627 223.176 19.584ZM246.073 20.864C245.966 20.8213 245.806 20.7147 245.593 20.544C245.38 20.3733 245.198 20.0853 245.049 19.68C244.9 19.2533 244.825 18.6667 244.825 17.92C244.846 17.28 244.857 16.7787 244.857 16.416C244.878 16.0533 244.804 15.872 244.633 15.872C244.462 15.872 244.132 16.0427 243.641 16.384C243.172 16.704 242.628 17.1413 242.009 17.696C241.39 18.2507 240.761 18.8693 240.121 19.552C239.908 19.7867 239.694 20.0107 239.481 20.224C239.289 20.416 239.097 20.544 238.905 20.608C238.713 20.6507 238.489 20.576 238.233 20.384L237.881 20.096C237.774 19.9893 237.71 19.8827 237.689 19.776C237.668 19.648 237.678 19.5093 237.721 19.36L238.457 17.248C238.798 16.48 239.033 15.9253 239.161 15.584C239.289 15.2213 239.353 14.9973 239.353 14.912C239.353 14.8053 239.321 14.7627 239.257 14.784C239.086 14.8053 238.83 14.912 238.489 15.104C238.148 15.2747 237.924 15.4453 237.817 15.616C237.732 15.616 237.604 15.712 237.433 15.904C237.262 16.096 237.049 16.2773 236.793 16.448C236.644 16.704 236.345 17.0347 235.897 17.44C235.47 17.8453 235.044 18.2613 234.617 18.688C234.34 18.9227 234.062 19.2107 233.785 19.552C233.529 19.8933 233.305 20.192 233.113 20.448C232.942 20.704 232.825 20.832 232.761 20.832C232.484 20.832 232.228 20.7573 231.993 20.608C231.78 20.4587 231.62 20.2133 231.513 19.872C231.342 19.5093 231.342 19.008 231.513 18.368C231.684 17.7067 231.876 16.8533 232.089 15.808C232.174 15.488 232.228 15.2533 232.249 15.104C232.27 14.9547 232.302 14.8053 232.345 14.656C232.409 14.4853 232.505 14.2293 232.633 13.888C232.782 13.5467 233.006 13.0347 233.305 12.352C233.454 11.9467 233.54 11.648 233.561 11.456C233.604 11.2427 233.625 11.0933 233.625 11.008C233.625 10.7947 233.678 10.6133 233.785 10.464C233.913 10.3147 234.062 10.208 234.233 10.144C234.404 10.08 234.564 10.0693 234.713 10.112C234.948 10.1547 235.15 10.272 235.321 10.464C235.513 10.656 235.62 10.9227 235.641 11.264C235.662 11.52 235.641 11.7547 235.577 11.968C235.513 12.16 235.449 12.3413 235.385 12.512L235.033 13.376C234.926 13.6107 234.788 13.952 234.617 14.4C234.446 14.848 234.297 15.264 234.169 15.648C234.041 16.0107 233.977 16.224 233.977 16.288C233.998 16.352 234.073 16.3413 234.201 16.256C234.329 16.1493 234.489 16.0107 234.681 15.84C234.894 15.648 235.108 15.4667 235.321 15.296C235.769 14.8693 236.27 14.464 236.825 14.08C237.401 13.6747 237.945 13.3333 238.457 13.056C238.969 12.7787 239.364 12.5973 239.641 12.512C240.004 12.512 240.249 12.576 240.377 12.704C240.526 12.832 240.772 13.0667 241.113 13.408C241.262 13.5573 241.348 13.7493 241.369 13.984C241.39 14.2187 241.38 14.4427 241.337 14.656C241.316 14.7413 241.252 14.9547 241.145 15.296C241.038 15.616 240.932 15.9253 240.825 16.224C240.74 16.5227 240.697 16.672 240.697 16.672C240.697 16.672 240.814 16.5653 241.049 16.352C241.305 16.1387 241.582 15.9147 241.881 15.68C242.18 15.424 242.404 15.232 242.553 15.104C243.385 14.464 244.11 14.0587 244.729 13.888C245.348 13.7173 245.849 13.9413 246.233 14.56C246.489 14.7947 246.617 15.0507 246.617 15.328C246.638 15.6053 246.649 16.0853 246.649 16.768C246.67 17.0453 246.692 17.376 246.713 17.76C246.734 18.144 246.756 18.496 246.777 18.816C246.82 19.1147 246.862 19.296 246.905 19.36C246.969 19.4453 247.086 19.52 247.257 19.584C247.449 19.6267 247.694 19.6693 247.993 19.712C248.313 19.7547 248.505 19.8933 248.569 20.128C248.633 20.3627 248.494 20.5867 248.153 20.8C247.833 20.992 247.481 21.0773 247.097 21.056C246.713 21.0347 246.372 20.9707 246.073 20.864ZM250.155 20.64C250.07 20.64 249.963 20.6187 249.835 20.576C249.729 20.512 249.675 20.48 249.675 20.48C249.675 20.3947 249.643 20.288 249.579 20.16C249.537 20.032 249.515 19.9253 249.515 19.84C249.366 19.7547 249.281 19.6693 249.259 19.584C249.238 19.4773 249.27 19.3067 249.355 19.072C249.483 18.8587 249.654 18.5173 249.867 18.048C250.081 17.5573 250.305 17.0347 250.539 16.48C250.774 15.904 250.998 15.3387 251.211 14.784C251.425 14.2293 251.606 13.76 251.755 13.376C251.905 12.9707 251.99 12.7253 252.011 12.64C252.011 12.5547 252.043 12.448 252.107 12.32C252.171 12.192 252.246 12.0853 252.331 12C252.502 11.8507 252.683 11.84 252.875 11.968C253.067 12.0747 253.227 12.2667 253.355 12.544C253.505 12.8 253.579 13.088 253.579 13.408C253.579 13.5573 253.473 13.9413 253.259 14.56C253.046 15.1573 252.758 15.872 252.395 16.704C252.054 17.536 251.67 18.3787 251.243 19.232C250.923 19.8507 250.721 20.2453 250.635 20.416C250.55 20.5653 250.39 20.64 250.155 20.64ZM254.859 8.51201C254.603 8.51201 254.326 8.41601 254.027 8.22401C253.75 8.01067 253.505 7.75467 253.291 7.45601C253.099 7.13601 253.003 6.81601 253.003 6.49601C253.003 6.38934 253.067 6.24001 253.195 6.04801C253.323 5.85601 253.451 5.66401 253.579 5.47201C253.707 5.28001 253.771 5.16267 253.771 5.12001C253.942 5.12001 254.07 5.13067 254.155 5.15201C254.262 5.15201 254.39 5.19467 254.539 5.28001C254.774 5.81334 255.062 6.25067 255.403 6.59201C255.766 6.93334 255.947 7.22134 255.947 7.45601C255.947 7.92534 255.905 8.22401 255.819 8.35201C255.734 8.45867 255.414 8.51201 254.859 8.51201ZM258.876 21.472C258.407 21.472 258.055 21.4507 257.82 21.408C257.585 21.3653 257.404 21.3013 257.276 21.216C257.148 21.1307 256.999 21.0133 256.828 20.864C256.743 20.6933 256.636 20.512 256.508 20.32C256.38 20.128 256.273 19.9893 256.188 19.904C256.103 19.584 256.06 19.168 256.06 18.656C256.081 18.144 256.145 17.5893 256.252 16.992C256.38 16.3947 256.551 15.84 256.764 15.328C256.849 15.1573 256.924 14.9867 256.988 14.816C257.052 14.6453 257.084 14.56 257.084 14.56C257.084 14.4533 257.212 14.1973 257.468 13.792C257.745 13.3867 258.044 12.96 258.364 12.512C258.705 12.064 258.983 11.744 259.196 11.552C259.345 11.3813 259.569 11.2 259.868 11.008C260.188 10.816 260.465 10.6773 260.7 10.592C260.935 10.5067 261.169 10.432 261.404 10.368C261.66 10.304 261.948 10.272 262.268 10.272C262.567 10.272 262.844 10.336 263.1 10.464C263.356 10.592 263.601 10.816 263.836 11.136C264.22 11.52 264.433 11.904 264.476 12.288C264.54 12.6507 264.529 13.024 264.444 13.408C264.337 13.8347 264.199 14.1653 264.028 14.4C263.857 14.6133 263.665 14.7093 263.452 14.688C263.239 14.6667 262.993 14.5067 262.716 14.208C262.631 14.0373 262.588 13.8987 262.588 13.792C262.588 13.664 262.631 13.4827 262.716 13.248C262.801 12.9493 262.801 12.64 262.716 12.32C262.631 12 262.492 11.84 262.3 11.84C262.023 11.84 261.713 11.968 261.372 12.224C261.052 12.4587 260.721 12.7573 260.38 13.12C260.231 13.2907 260.017 13.5573 259.74 13.92C259.484 14.2613 259.228 14.6453 258.972 15.072C258.716 15.4773 258.503 15.872 258.332 16.256C258.097 16.96 257.905 17.5253 257.756 17.952C257.628 18.3787 257.564 18.592 257.564 18.592C257.564 18.6773 257.585 18.7627 257.628 18.848C257.692 18.912 257.724 18.9867 257.724 19.072C257.724 19.328 257.873 19.5307 258.172 19.68C258.407 19.8293 258.684 19.9147 259.004 19.936C259.324 19.936 259.719 19.8293 260.188 19.616C260.529 19.4453 260.849 19.2213 261.148 18.944C261.468 18.6667 261.799 18.4213 262.14 18.208C262.375 18.0587 262.556 17.9307 262.684 17.824C262.833 17.7173 262.908 17.7067 262.908 17.792C262.908 17.8773 262.94 17.92 263.004 17.92C263.068 17.92 263.143 17.8773 263.228 17.792C263.356 17.6213 263.495 17.5147 263.644 17.472C263.793 17.408 263.921 17.3867 264.028 17.408C264.156 17.408 264.22 17.44 264.22 17.504C264.177 17.696 264.22 17.856 264.348 17.984C264.348 18.0693 264.316 18.1867 264.252 18.336C264.209 18.464 264.145 18.5707 264.06 18.656C263.953 18.8053 263.793 18.976 263.58 19.168C263.388 19.36 263.207 19.5307 263.036 19.68C262.865 19.808 262.78 19.872 262.78 19.872C262.695 19.8507 262.609 19.872 262.524 19.936C262.46 20 262.385 20.0747 262.3 20.16C262.129 20.3093 261.969 20.4267 261.82 20.512C261.671 20.576 261.553 20.608 261.468 20.608C261.319 20.6933 261.201 20.7467 261.116 20.768C261.052 20.7893 261.02 20.8427 261.02 20.928C260.807 21.1413 260.54 21.2907 260.22 21.376C259.921 21.44 259.473 21.472 258.876 21.472ZM277.365 23.808C276.661 23.7013 276.181 23.4347 275.925 23.008C275.69 22.6027 275.637 21.9733 275.765 21.12C275.893 20.7147 275.967 20.352 275.989 20.032C276.031 19.6907 276.127 19.4773 276.277 19.392C276.277 19.392 276.287 19.36 276.309 19.296C276.351 19.232 276.341 19.168 276.277 19.104C276.277 18.8267 276.373 18.4427 276.565 17.952C276.607 17.824 276.661 17.6747 276.725 17.504C276.81 17.312 276.853 17.216 276.853 17.216C276.746 17.0453 276.746 16.9067 276.853 16.8C276.959 16.6933 277.066 16.5973 277.173 16.512C277.301 16.4053 277.311 16.288 277.205 16.16C277.162 16.0747 277.215 15.8827 277.365 15.584C277.514 15.264 277.685 14.9333 277.877 14.592C278.069 14.2507 278.197 13.984 278.261 13.792C278.261 13.7493 278.314 13.6 278.421 13.344C278.527 13.088 278.655 12.7893 278.805 12.448C278.954 12.1067 279.093 11.7973 279.221 11.52C279.37 11.2427 279.466 11.0613 279.509 10.976C279.722 10.8693 279.637 10.7947 279.253 10.752C278.869 10.7093 278.463 10.6987 278.037 10.72C277.375 10.6987 276.842 10.6667 276.437 10.624C276.053 10.5813 275.733 10.4853 275.477 10.336C275.221 10.0373 275.125 9.82401 275.189 9.69601C275.274 9.54667 275.53 9.46134 275.957 9.44001C276.234 9.41867 276.447 9.40801 276.597 9.40801C276.767 9.40801 276.981 9.39734 277.237 9.37601C277.514 9.33334 277.941 9.28001 278.517 9.21601L280.149 9.08801L280.245 8.54401C280.415 8.26667 280.554 8.02134 280.661 7.80801C280.789 7.57334 280.895 7.33867 280.981 7.10401C281.066 6.86934 281.13 6.62401 281.173 6.36801C281.173 6.36801 281.269 6.19734 281.461 5.85601C281.653 5.49334 281.77 5.12001 281.813 4.73601C282.069 4.30934 282.293 3.92534 282.485 3.58401C282.677 3.22134 282.794 2.99734 282.837 2.91201C283.071 2.72001 283.231 2.62401 283.317 2.62401C283.423 2.62401 283.637 2.73067 283.957 2.94401C284.149 3.05067 284.319 3.17867 284.469 3.32801C284.618 3.47734 284.714 3.63734 284.757 3.80801C284.799 3.95734 284.735 4.10667 284.565 4.25601C284.522 4.34134 284.458 4.50134 284.373 4.73601C284.287 4.94934 284.223 5.13067 284.181 5.28001C284.053 5.42934 283.893 5.67467 283.701 6.01601C283.53 6.33601 283.413 6.66667 283.349 7.00801C283.178 7.37067 283.018 7.70134 282.869 8.00001C282.719 8.27734 282.602 8.41601 282.517 8.41601C282.559 8.62934 282.687 8.73601 282.901 8.73601C283.114 8.71467 283.466 8.69334 283.957 8.67201C284.362 8.62934 284.639 8.58667 284.789 8.54401C284.959 8.48001 285.151 8.50134 285.365 8.60801C285.471 8.75734 285.557 8.92801 285.621 9.12001C285.685 9.31201 285.695 9.49334 285.653 9.66401C285.631 9.81334 285.546 9.92001 285.397 9.98401C285.29 9.98401 285.066 10.048 284.725 10.176C284.405 10.2827 283.999 10.3467 283.509 10.368L281.813 10.528L281.269 11.616C281.119 11.8933 280.991 12.1493 280.885 12.384C280.778 12.5973 280.703 12.7253 280.661 12.768C280.661 12.896 280.586 13.088 280.437 13.344C280.309 13.6 280.17 13.8773 280.021 14.176C279.893 14.5387 279.743 14.8693 279.573 15.168C279.423 15.4667 279.349 15.616 279.349 15.616C279.263 15.616 279.221 15.68 279.221 15.808C279.327 16.064 279.295 16.256 279.125 16.384C279.018 16.448 278.922 16.544 278.837 16.672C278.773 16.7787 278.741 16.832 278.741 16.832C278.826 16.9173 278.837 17.024 278.773 17.152C278.73 17.28 278.666 17.4187 278.581 17.568C278.581 17.7387 278.527 17.984 278.421 18.304C278.335 18.624 278.239 18.9227 278.133 19.2C278.154 19.584 278.175 19.8293 278.197 19.936C278.218 20.0427 278.271 20.0853 278.357 20.064C278.463 20.0853 278.559 20.0853 278.645 20.064C278.73 20.0427 278.815 20.032 278.901 20.032C279.199 19.904 279.039 20.6507 278.421 22.272C278.079 22.8053 277.845 23.1893 277.717 23.424C277.589 23.68 277.471 23.808 277.365 23.808ZM287.286 21.728C287.009 21.728 286.785 21.6747 286.614 21.568C286.465 21.4613 286.273 21.312 286.038 21.12C285.633 20.6933 285.345 20.288 285.174 19.904C285.004 19.4987 284.95 19.1147 285.014 18.752C285.078 18.5813 285.1 18.4213 285.078 18.272C285.078 18.1013 285.078 18.016 285.078 18.016C284.972 17.9093 284.94 17.8453 284.982 17.824C285.025 17.7813 285.068 17.7173 285.11 17.632C285.238 17.632 285.281 17.5147 285.238 17.28C285.196 17.1093 285.281 16.736 285.494 16.16C285.708 15.584 285.974 15.04 286.294 14.528C286.422 14.3147 286.614 14.0373 286.87 13.696C287.126 13.3333 287.404 12.9813 287.702 12.64C288.022 12.2773 288.31 11.9893 288.566 11.776C289.1 11.328 289.569 10.9973 289.974 10.784C290.38 10.5707 290.817 10.4107 291.286 10.304C291.756 10.1973 292.076 10.144 292.246 10.144C292.438 10.144 292.694 10.3147 293.014 10.656C293.505 10.8693 293.857 11.1253 294.07 11.424C294.305 11.7227 294.454 12.16 294.518 12.736C294.582 13.376 294.529 14.112 294.358 14.944C294.209 15.7547 293.708 16.768 292.854 17.984C292.321 18.752 291.83 19.328 291.382 19.712C290.934 20.0747 290.401 20.4373 289.782 20.8C289.334 21.0987 288.929 21.3227 288.566 21.472C288.204 21.6 287.777 21.6853 287.286 21.728ZM290.358 18.336C290.87 17.76 291.276 17.216 291.574 16.704C291.894 16.192 292.193 15.5413 292.47 14.752C292.556 14.5173 292.609 14.2293 292.63 13.888C292.652 13.5253 292.641 13.1947 292.598 12.896C292.577 12.576 292.502 12.3947 292.374 12.352C292.118 12.2027 291.809 12.16 291.446 12.224C291.084 12.2667 290.689 12.4693 290.262 12.832C289.601 13.3867 289.025 14.08 288.534 14.912C288.044 15.7227 287.564 16.6507 287.094 17.696C286.774 18.464 286.7 19.0827 286.87 19.552C287.062 20 287.457 20.16 288.054 20.032C288.673 19.8827 289.441 19.3173 290.358 18.336ZM296.744 22.048C296.573 21.984 296.392 21.856 296.2 21.664C296.008 21.4507 295.848 21.2053 295.72 20.928C295.592 20.6507 295.528 20.3947 295.528 20.16C295.634 19.9253 295.773 19.52 295.944 18.944C296.114 18.3467 296.328 17.664 296.584 16.896C296.754 16.6613 296.882 16.384 296.968 16.064C297.074 15.744 297.17 15.456 297.256 15.2C297.426 14.8587 297.629 14.4213 297.864 13.888C298.098 13.3333 298.322 12.7787 298.536 12.224C298.77 11.648 298.973 11.168 299.144 10.784C299.421 10.208 299.656 9.68534 299.848 9.21601C300.061 8.72534 300.264 8.23467 300.456 7.74401C300.669 7.25334 300.893 6.72001 301.128 6.14401C301.384 5.54667 301.64 4.93867 301.896 4.32001C302.173 3.70134 302.408 3.14667 302.6 2.65601C302.813 2.14401 302.941 1.78134 302.984 1.56801C302.984 1.39734 303.016 1.26934 303.08 1.18401C303.165 1.09867 303.25 1.05601 303.336 1.05601C303.421 0.970674 303.506 0.928007 303.592 0.928007C303.677 0.906674 303.762 0.896008 303.848 0.896008C303.933 0.896008 304.093 1.05601 304.328 1.37601C304.584 1.69601 304.712 1.98401 304.712 2.24001C304.712 2.58134 304.541 3.22134 304.2 4.16001C303.88 5.09867 303.421 6.16534 302.824 7.36001C302.098 8.93867 301.512 10.24 301.064 11.264C300.616 12.2667 300.306 13.024 300.136 13.536C299.965 14.0267 299.901 14.304 299.944 14.368C299.944 14.368 300.093 14.304 300.392 14.176C300.69 14.0267 301.01 13.824 301.352 13.568C301.586 13.44 301.842 13.28 302.12 13.088C302.397 12.896 302.664 12.7147 302.92 12.544C303.176 12.352 303.389 12.2347 303.56 12.192C303.816 12.0213 304.082 11.8613 304.36 11.712C304.637 11.5413 304.818 11.4133 304.904 11.328C305.266 11.1573 305.533 11.104 305.704 11.168C305.896 11.232 306.088 11.392 306.28 11.648C306.514 11.9253 306.557 12.1707 306.408 12.384C306.258 12.576 305.906 12.8427 305.352 13.184C304.904 13.4613 304.36 13.792 303.72 14.176C303.101 14.56 302.546 14.9013 302.056 15.2C301.586 15.4987 301.32 15.68 301.256 15.744C301.256 15.744 301.341 15.904 301.512 16.224C301.682 16.544 301.853 16.832 302.024 17.088C302.194 17.4293 302.376 17.7493 302.568 18.048C302.781 18.3253 302.888 18.5173 302.888 18.624C303.122 19.2853 303.474 19.7653 303.944 20.064C304.413 20.3627 304.904 20.3947 305.416 20.16C305.842 19.9893 306.152 19.936 306.344 20C306.557 20.064 306.706 20.224 306.792 20.48C306.877 20.6507 306.898 20.7787 306.856 20.864C306.834 20.928 306.696 21.088 306.44 21.344C306.034 21.7493 305.618 22.0053 305.192 22.112C304.786 22.2187 304.413 22.1867 304.072 22.016C303.752 22.0373 303.357 21.8347 302.888 21.408C302.418 20.96 301.746 20.1707 300.872 19.04C300.872 18.9547 300.829 18.8373 300.744 18.688C300.68 18.5173 300.605 18.3573 300.52 18.208C300.434 18.0373 300.328 17.856 300.2 17.664C300.072 17.4507 300.008 17.344 300.008 17.344C300.008 17.2587 299.976 17.1627 299.912 17.056C299.848 16.9493 299.762 16.8213 299.656 16.672C299.314 16.5653 299.069 16.6293 298.92 16.864C298.77 17.0987 298.61 17.344 298.44 17.6C298.333 17.8773 298.194 18.272 298.024 18.784C297.874 19.2747 297.746 19.7547 297.64 20.224C297.554 20.6933 297.533 21.0133 297.576 21.184C297.576 21.5253 297.522 21.76 297.416 21.888C297.309 21.9947 297.085 22.048 296.744 22.048ZM311.119 22.304C310.181 22.304 309.413 21.952 308.815 21.248C308.218 20.5227 307.93 19.6267 307.951 18.56C307.994 17.792 308.143 16.9707 308.399 16.096C308.677 15.2 309.039 14.3467 309.487 13.536C309.935 12.704 310.426 11.9787 310.959 11.36C311.493 10.7413 312.047 10.304 312.623 10.048C312.837 9.94134 313.061 9.85601 313.295 9.79201C313.551 9.72801 313.807 9.69601 314.063 9.69601C314.298 9.69601 314.543 9.73867 314.799 9.82401C315.055 9.88801 315.269 9.96267 315.439 10.048C315.802 10.1973 316.079 10.3787 316.271 10.592C316.463 10.8053 316.634 11.136 316.783 11.584C316.847 11.9893 316.879 12.2773 316.879 12.448C316.879 12.6187 316.826 12.8747 316.719 13.216C316.463 13.984 316.133 14.6453 315.727 15.2C315.322 15.7547 314.778 16.224 314.095 16.608C313.925 16.7147 313.722 16.8 313.487 16.864C313.274 16.9067 313.05 16.928 312.815 16.928C312.389 16.928 311.973 16.8533 311.567 16.704C311.183 16.5333 310.874 16.288 310.639 15.968L310.415 15.712L310.319 15.968C310.106 16.544 309.935 17.0773 309.807 17.568C309.701 18.0587 309.647 18.5067 309.647 18.912C309.647 19.168 309.669 19.4133 309.711 19.648C309.775 19.8827 309.861 20.0853 309.967 20.256C310.053 20.384 310.191 20.48 310.383 20.544C310.597 20.5867 310.821 20.608 311.055 20.608C311.205 20.608 311.354 20.608 311.503 20.608C311.674 20.5867 311.834 20.544 311.983 20.48C312.346 20.352 312.634 20.2133 312.847 20.064C313.082 19.9147 313.317 19.7547 313.551 19.584L313.679 19.52H313.647C313.903 19.392 314.127 19.264 314.319 19.136C314.533 19.008 314.639 18.944 314.639 18.944C314.725 18.944 314.81 18.8907 314.895 18.784C315.066 18.6987 315.279 18.7307 315.535 18.88C315.813 19.0293 315.951 19.2213 315.951 19.456C315.93 19.5627 315.834 19.7333 315.663 19.968C315.493 20.1813 315.301 20.384 315.087 20.576C314.895 20.768 314.735 20.8747 314.607 20.896C314.586 20.9173 314.511 20.96 314.383 21.024C314.255 21.0667 314.17 21.1093 314.127 21.152H314.159C313.967 21.408 313.775 21.536 313.583 21.536H313.327C313.242 21.6853 312.965 21.856 312.495 22.048C312.026 22.2187 311.567 22.304 311.119 22.304ZM312.559 15.264C312.943 15.264 313.274 15.1573 313.551 14.944C313.85 14.7093 314.106 14.4533 314.319 14.176C314.746 13.6 314.991 13.0453 315.055 12.512C315.141 11.9573 315.077 11.5733 314.863 11.36C314.735 11.296 314.618 11.264 314.511 11.264C314.426 11.2427 314.245 11.2747 313.967 11.36C313.775 11.4027 313.509 11.5627 313.167 11.84C312.826 12.1173 312.485 12.4267 312.143 12.768C311.823 13.1093 311.578 13.3973 311.407 13.632L310.991 14.304C311.162 14.24 311.322 14.208 311.471 14.208C311.642 14.1867 311.738 14.1973 311.759 14.24C311.759 14.432 311.791 14.6133 311.855 14.784C311.941 14.9333 312.037 15.0507 312.143 15.136C312.271 15.2213 312.41 15.264 312.559 15.264ZM328.373 21.824C328.16 21.824 327.936 21.7067 327.701 21.472C327.488 21.2373 327.296 20.9493 327.125 20.608C326.976 20.2453 326.901 19.904 326.901 19.584C326.901 19.264 326.976 18.6667 327.125 17.792C327.296 16.9173 327.499 16.032 327.733 15.136C327.904 14.5813 327.957 14.2613 327.893 14.176C327.829 14.0907 327.541 14.208 327.029 14.528C326.731 14.6773 326.464 14.8373 326.229 15.008C325.995 15.1573 325.792 15.328 325.621 15.52C325.515 15.6053 325.355 15.744 325.141 15.936C324.928 16.128 324.704 16.3093 324.469 16.48C324.192 16.6933 323.84 16.992 323.413 17.376C322.987 17.76 322.56 18.144 322.133 18.528C321.728 18.912 321.419 19.2107 321.205 19.424C321.163 19.5093 321.099 19.584 321.013 19.648C320.928 19.712 320.832 19.7547 320.725 19.776C320.619 19.776 320.501 19.7547 320.373 19.712C320.139 19.648 319.915 19.5093 319.701 19.296C319.509 19.0827 319.413 18.8373 319.413 18.56C319.413 18.3467 319.499 17.984 319.669 17.472C319.84 16.9387 320.064 16.2987 320.341 15.552C320.64 14.8053 320.981 14.016 321.365 13.184C321.429 13.0773 321.483 12.9493 321.525 12.8C321.568 12.6293 321.6 12.448 321.621 12.256C321.664 12.064 321.685 11.8827 321.685 11.712C321.685 11.6053 321.696 11.4987 321.717 11.392C321.76 11.264 321.803 11.1467 321.845 11.04C321.909 10.912 321.963 10.8267 322.005 10.784C322.091 10.6133 322.24 10.5707 322.453 10.656C322.667 10.72 322.848 10.8693 322.997 11.104C323.317 11.4027 323.477 11.776 323.477 12.224C323.499 12.672 323.392 13.2267 323.157 13.888C323.072 14.0373 322.997 14.1867 322.933 14.336C322.891 14.464 322.848 14.5813 322.805 14.688C322.763 14.7733 322.731 14.848 322.709 14.912C322.688 14.9547 322.677 14.976 322.677 14.976C322.763 14.976 322.955 14.88 323.253 14.688C323.552 14.496 323.904 14.2827 324.309 14.048C324.629 13.8133 324.907 13.6 325.141 13.408C325.397 13.1947 325.611 13.0347 325.781 12.928C325.952 12.8 326.059 12.736 326.101 12.736C326.187 12.736 326.293 12.704 326.421 12.64C326.549 12.576 326.656 12.5013 326.741 12.416C326.827 12.3307 326.891 12.288 326.933 12.288C326.997 12.2667 327.029 12.256 327.029 12.256C327.029 12.256 327.072 12.256 327.157 12.256C327.243 12.2347 327.328 12.1813 327.413 12.096C327.584 11.968 327.808 11.936 328.085 12C328.363 12.0427 328.619 12.1493 328.853 12.32C329.088 12.4907 329.205 12.6827 329.205 12.896C329.205 12.9813 329.227 13.056 329.269 13.12C329.333 13.1627 329.365 13.184 329.365 13.184C329.536 13.184 329.643 13.4507 329.685 13.984C329.749 14.5173 329.696 15.0293 329.525 15.52C329.525 15.84 329.461 16.224 329.333 16.672C329.227 17.12 329.131 17.5467 329.045 17.952C328.875 18.4853 328.757 18.9547 328.693 19.36C328.629 19.7653 328.619 20.1067 328.661 20.384C328.704 20.6613 328.779 20.8853 328.885 21.056C328.971 21.2053 328.971 21.376 328.885 21.568C328.8 21.7387 328.629 21.824 328.373 21.824Z" fill="white"/>
</svg>
